<?xml version="1.0" encoding="UTF-8" standalone="no"?> <!-- Created with Vectornator for iOS (http://vectornator.io/) --><!DOCTYPE svg PUBLIC "-//W3C//DTD SVG 1.1//EN" "http://www.w3.org/Graphics/SVG/1.1/DTD/svg11.dtd">
<svg style="fill-rule:evenodd;clip-rule:evenodd;stroke-linecap:round;stroke-linejoin:round;" xmlns:vectornator="http://vectornator.io" xmlns:xlink="http://www.w3.org/1999/xlink" xmlns="http://www.w3.org/2000/svg" xml:space="preserve" version="1.1" viewBox="0 0 512 512">
<metadata>
<vectornator:setting key="DynamicGuides" value="1"/>
<vectornator:setting key="Units" value="Points"/>
<vectornator:setting key="RulersVisible" value="1"/>
<vectornator:setting key="SnapToGuides" value="1"/>
<vectornator:setting key="GridSpacing" value="36"/>
</metadata>
<defs/>
<g id="Layer 1" vectornator:layerName="Layer 1">
<path d="M26.2707+94.8562L335.872+94.8562C350.381+94.8562+362.144+107.595+362.144+123.309L362.144+123.309C362.144+139.024+350.381+151.761+335.872+151.761L26.2707+151.761C11.7622+151.761+2.63658e-05+139.024+2.63658e-05+123.309L2.63658e-05+123.309C2.63658e-05+107.595+11.7622+94.8562+26.2707+94.8562Z" fill-rule="evenodd" fill="#fc4d50" opacity="1"/>
<path d="M145.294+267.376L345.181+267.376C354.549+267.376+362.144+280.115+362.144+295.828L362.144+295.828C362.144+311.541+354.549+324.281+345.181+324.281L145.294+324.281C135.927+324.281+128.333+311.541+128.333+295.828L128.333+295.828C128.333+280.115+135.927+267.376+145.294+267.376Z" fill-rule="evenodd" fill="#fc4d50" opacity="1"/>
<path d="M26.2707+441.706L335.872+441.706C350.381+441.706+362.144+454.445+362.144+470.159L362.144+470.159C362.144+485.873+350.381+498.61+335.872+498.61L26.2707+498.61C11.7622+498.61+2.63658e-05+485.873+2.63658e-05+470.159L2.63658e-05+470.159C2.63658e-05+454.445+11.7622+441.706+26.2707+441.706Z" fill-rule="evenodd" fill="#fc4d50" opacity="1"/>
<path d="M85.9522+187.584L85.9522+404.073C85.9522+414.218+74.1897+422.442+59.6813+422.442L59.6813+422.442C45.1717+422.442+33.4103+414.218+33.4103+404.073L33.4103+187.584C33.4103+177.44+45.1717+169.215+59.6813+169.215L59.6813+169.215C74.1897+169.215+85.9522+177.44+85.9522+187.584Z" fill-rule="evenodd" fill="#fc4d50" opacity="1"/>
<path d="M512+150.923C512+164.05+507.84+175.784+499.522+186.127C480.511+210.193+454.371+222.226+421.1+222.226C406.247+222.226+392.681+220.634+380.403+217.453C372.48+215.463+364.559+211.287+356.638+204.923C347.33+197.563+342.676+190.304+342.676+183.143C342.676+179.763+344.211+176.729+347.28+174.044C350.35+171.36+353.568+170.017+356.934+170.017C362.677+170.017+366.936+172.702+369.709+178.072C373.472+186.027+376.64+191.1+379.215+193.287C385.75+198.657+396.641+201.342+411.891+201.342C424.962+201.342+437.041+198.956+448.132+194.182C460.41+188.613+469.619+180.757+475.758+170.613C480.115+163.255+482.293+157.288+482.293+152.713C482.293+143.166+476.55+135.111+465.064+128.547C455.361+122.78+445.458+119.896+435.358+119.896C432.586+119.896+425.258+122.133+413.376+126.609C401.494+131.084+392.086+133.321+385.155+133.321C381.393+133.321+377.927+132.526+374.759+130.935C370.797+129.144+368.817+126.559+368.817+123.177C368.817+119.001+370.995+114.626+375.352+110.051C379.71+105.477+387.532+102.891+398.821+102.294C412.682+101.499+421.199+100.405+424.367+99.0125C430.308+96.6258+437.735+90.4602+446.646+80.5156C454.766+71.1677+458.826+62.2177+458.826+53.6653C458.826+42.7263+453.182+37.2569+441.894+37.2569C435.556+37.2569+426.545+39.743+414.862+44.7152C403.177+49.6875+395.751+54.4609+392.581+59.0354L392.581+59.9304C392.581+60.1293+393.078+61.5216+394.068+64.1071C391.889+68.6816+387.73+73.455+381.591+78.4273C374.857+83.5985+369.214+86.184+364.659+86.184C361.292+86.184+357.875+84.941+354.41+82.4548C350.944+79.9687+349.211+77.1345+349.211+73.9522C349.211+69.5766+351.885+63.9083+357.232+56.9471C365.946+45.6102+378.769+35.5165+395.7+26.6659C412.633+17.8152+428.031+13.3898+441.894+13.3898C454.371+13.3898+464.767+16.6716+473.085+23.235C482.195+30.1961+486.749+39.8424+486.749+52.1736C486.749+60.5271+484.076+69.5766+478.728+79.3222C473.778+88.0734+467.738+95.4324+460.609+101.399C494.869+109.156+512+125.663+512+150.923Z" fill-rule="evenodd" fill="#ff8b00" opacity="1"/>
</g>
</svg>
