<?xml version="1.0" standalone="no"?>
<!DOCTYPE svg PUBLIC "-//W3C//DTD SVG 20010904//EN"
 "http://www.w3.org/TR/2001/REC-SVG-20010904/DTD/svg10.dtd">
<svg version="1.0" xmlns="http://www.w3.org/2000/svg"
 width="700.000000pt" height="700.000000pt" viewBox="0 0 700.000000 700.000000"
 preserveAspectRatio="xMidYMid meet">
<metadata>
Created by potrace 1.11, written by Peter Selinger 2001-2013
</metadata>
<g transform="translate(0.000000,700.000000) scale(0.100000,-0.100000)"
fill="#000000" stroke="none">
<path d="M5960 6814 c-8 -1 -49 -8 -90 -14 -170 -27 -440 -139 -625 -260 -295
-193 -500 -449 -465 -581 20 -72 114 -133 205 -133 78 0 173 49 272 139 93 85
135 148 122 182 -13 35 -11 47 9 69 57 64 201 143 374 208 227 84 373 86 456
5 83 -81 63 -289 -42 -439 -48 -69 -65 -88 -156 -178 -92 -92 -182 -157 -239
-171 -53 -14 -154 -27 -281 -36 -224 -16 -322 -49 -388 -132 -62 -80 -81 -143
-58 -198 15 -36 44 -57 110 -79 115 -39 225 -19 596 109 161 56 167 57 245 51
69 -4 108 -13 210 -43 36 -11 169 -84 217 -119 63 -47 106 -98 136 -162 34
-74 29 -180 -13 -267 -83 -175 -210 -307 -380 -397 -51 -27 -205 -81 -260 -92
-16 -3 -43 -8 -60 -12 -16 -3 -106 -8 -200 -10 -143 -3 -184 -1 -260 16 -170
38 -235 88 -313 243 -49 96 -83 133 -137 152 -80 27 -182 -10 -232 -86 -67
-102 -3 -247 170 -385 120 -95 266 -162 412 -188 17 -3 39 -8 50 -10 33 -6 96
-15 155 -22 88 -10 359 -12 435 -3 315 38 554 145 763 343 136 130 215 246
264 390 29 84 32 101 32 226 0 114 -4 145 -23 200 -71 205 -227 340 -501 435
-58 20 -106 36 -107 36 -2 0 -17 2 -34 6 l-31 6 54 52 c83 82 135 151 200 265
28 50 74 162 82 200 3 14 8 36 11 50 13 51 7 198 -10 256 -64 224 -281 370
-562 378 -54 1 -105 2 -113 0z"/>
<path d="M312 5698 c-166 -24 -301 -178 -308 -352 -6 -139 27 -227 117 -317
40 -39 75 -64 115 -79 l59 -23 2180 0 2180 0 56 22 c143 55 237 199 237 365 0
89 -17 148 -63 221 -54 86 -140 146 -230 161 -55 9 -4279 11 -4343 2z"/>
<path d="M725 4678 c-62 -13 -127 -39 -165 -67 -44 -32 -55 -46 -82 -96 l-21
-40 0 -1520 0 -1520 21 -41 c97 -190 445 -228 621 -68 81 72 74 -71 76 1619 1
1221 -2 1518 -12 1550 -24 74 -105 141 -207 170 -65 19 -173 25 -231 13z"/>
<path d="M1946 3337 c-132 -32 -222 -278 -180 -492 27 -137 77 -220 159 -263
27 -14 178 -15 1410 -16 759 -1 1397 3 1417 8 110 25 188 168 194 356 5 155
-26 263 -96 344 -68 76 65 70 -1481 71 -763 0 -1403 -4 -1423 -8z"/>
<path d="M343 959 c-139 -13 -247 -90 -305 -218 -53 -115 -45 -269 18 -377 36
-61 123 -136 186 -159 52 -20 92 -20 2238 -20 l2185 0 65 32 c73 36 127 84
163 146 132 225 18 530 -220 586 -41 10 -519 13 -2155 14 -1157 1 -2135 -1
-2175 -4z"/>
</g>
</svg>
